<svg aria-hidden="true" style="position: absolute; width: 0; height: 0; overflow: hidden;" version="1.1" xmlns="http://www.w3.org/2000/svg" xmlns:xlink="http://www.w3.org/1999/xlink">
<defs>
<symbol id="icon-email" viewBox="0 0 32 32">
<path d="M6.563 0h18.875c3.62 0.010 6.552 2.942 6.563 6.561v18.876c-0.010 3.62-2.942 6.552-6.561 6.563h-18.876c-3.62-0.010-6.552-2.942-6.563-6.561v-18.876c0.010-3.62 2.942-6.552 6.561-6.563h0.001zM7.63 9.789l8.516 6.945 8.159-6.945zM7.081 21.479l6.068-6.086-6.068-4.948v11.034zM13.818 15.94l-6.266 6.271h16.836l-5.99-6.271-1.971 1.68c-0.074 0.062-0.171 0.1-0.276 0.1s-0.202-0.038-0.277-0.1l0.001 0.001-2.068-1.688zM19.063 15.383l5.857 6.143v-11.135l-5.857 4.992z"></path>
</symbol>
<symbol id="icon-git" viewBox="0 0 32 32">
<path d="M16 0.395c-8.836 0-16 7.163-16 16 0 7.069 4.585 13.067 10.942 15.182 0.8 0.148 1.094-0.347 1.094-0.77 0-0.381-0.015-1.642-0.022-2.979-4.452 0.968-5.391-1.888-5.391-1.888-0.728-1.849-1.776-2.341-1.776-2.341-1.452-0.993 0.11-0.973 0.11-0.973 1.606 0.113 2.452 1.649 2.452 1.649 1.427 2.446 3.743 1.739 4.656 1.33 0.143-1.034 0.558-1.74 1.016-2.14-3.554-0.404-7.29-1.777-7.29-7.907 0-1.747 0.625-3.174 1.649-4.295-0.166-0.403-0.714-2.030 0.155-4.234 0 0 1.344-0.43 4.401 1.64 1.276-0.355 2.645-0.532 4.005-0.539 1.359 0.006 2.729 0.184 4.008 0.539 3.054-2.070 4.395-1.64 4.395-1.64 0.871 2.204 0.323 3.831 0.157 4.234 1.026 1.12 1.647 2.548 1.647 4.295 0 6.145-3.743 7.498-7.306 7.895 0.574 0.497 1.085 1.47 1.085 2.963 0 2.141-0.019 3.864-0.019 4.391 0 0.426 0.288 0.925 1.099 0.768 6.354-2.118 10.933-8.113 10.933-15.18 0-8.837-7.164-16-16-16z"></path>
</symbol>
<symbol id="icon-link" viewBox="0 0 32 32">
<path  d="M7.22 0.13h17.53c3.982 0.012 7.208 3.237 7.22 7.218v17.385c-0.013 3.981-3.238 7.205-7.218 7.217h-17.531c-3.982-0.012-7.206-3.236-7.22-7.216v-17.385c0.012-3.982 3.237-7.208 7.218-7.22h0.001z"></path>
<path fill="#797979"  d="M12.797 12.464h4.040v2.081h0.057c0.565-1.009 1.938-2.081 3.991-2.081 4.264 0 5.052 2.654 5.052 6.106v7.3h-4.212v-6.488c0-1.486-0.031-3.398-2.191-3.398s-2.529 1.616-2.529 3.291v6.608h-4.209v-13.419zM10.406 8.401c0 1.21-0.981 2.191-2.191 2.191s-2.191-0.981-2.191-2.191c0-1.21 0.981-2.191 2.191-2.191v0c1.209 0.001 2.189 0.981 2.191 2.19v0zM6.031 12.464h4.376v13.406h-4.376v-13.406z"></path>
</symbol>
<symbol id="icon-phone" viewBox="0 0 32 32">
<path   d="M5.695 0h20.607c3.142 0.009 5.686 2.553 5.695 5.694v20.608c-0.007 3.143-2.553 5.689-5.694 5.698h-20.608c-3.143-0.009-5.688-2.555-5.695-5.697v-20.608c0.009-3.142 2.553-5.686 5.694-5.695h0.001z"></path>
<path fill="#797979"  d="M11.44 14.555c1.284 2.315 2.964 4.456 6.070 6.042 0.466 0.24 0.891 0 1.255-0.378 0.542-0.536 1.302-2.057 2.211-1.633l3.385 1.953c0.693 0.469 0.487 1.563 0 2.406-0.669 1.182-2.023 1.563-3.302 1.76-1.951 0.294-3.701-0.367-5.815-1.68-0.521-0.315-1.065-0.654-1.612-1.065-3.466-2.604-7.031-7.344-6.37-11.536 0.289-1.865 1.521-3.393 3.935-3.177l2.167 3.69c0.443 0.552 0.117 1.065-0.557 1.563s-1.784 1.083-1.367 2.065z"></path>
</symbol>
<symbol id="icon-location" viewBox="0 0 32 32">
<path d="M16 0c-5.523 0-10 4.477-10 10 0 10 10 22 10 22s10-12 10-22c0-5.523-4.477-10-10-10zM16 16c-3.314 0-6-2.686-6-6s2.686-6 6-6 6 2.686 6 6-2.686 6-6 6z"></path>
</symbol>
<symbol id="icon-happy" viewBox="0 0 32 32">
<path d="M16 0c-8.837 0-16 7.163-16 16s7.163 16 16 16 16-7.163 16-16-7.163-16-16-16zM22 8c1.105 0 2 1.343 2 3s-0.895 3-2 3-2-1.343-2-3 0.895-3 2-3zM10 8c1.105 0 2 1.343 2 3s-0.895 3-2 3-2-1.343-2-3 0.895-3 2-3zM16 28c-5.215 0-9.544-4.371-10-9.947 2.93 1.691 6.377 2.658 10 2.658s7.070-0.963 10-2.654c-0.455 5.576-4.785 9.942-10 9.942z"></path>
</symbol>
</defs>
</svg>
